<svg xmlns="http://www.w3.org/2000/svg" viewBox="0 0 200 200" width="200" height="200">
  <ellipse cx="100" cy="105" rx="75" ry="72" fill="#FFD93D"/>
  <line x1="70" y1="88" x2="84" y2="88" stroke="#2D2D2D" stroke-width="4" stroke-linecap="round"/>
  <line x1="116" y1="88" x2="130" y2="88" stroke="#2D2D2D" stroke-width="4" stroke-linecap="round"/>
  <circle cx="77" cy="88" r="7" fill="#2D2D2D"/>
  <circle cx="123" cy="88" r="7" fill="#2D2D2D"/>
  <circle cx="79" cy="86" r="2.5" fill="white"/>
  <circle cx="125" cy="86" r="2.5" fill="white"/>
  <path d="M78 118 Q100 140 122 118" stroke="#2D2D2D" stroke-width="4" fill="none" stroke-linecap="round"/>
  <ellipse cx="66" cy="130" rx="10" ry="7" fill="#FF9E9E" opacity="0.6"/>
  <ellipse cx="134" cy="130" rx="10" ry="7" fill="#FF9E9E" opacity="0.6"/>
  <path d="M86 112 Q100 108 114 112" stroke="#2D2D2D" stroke-width="2" fill="none"/>
  <path d="M78 72 Q72 58 83 64" stroke="#2D2D2D" stroke-width="3" fill="none" stroke-linecap="round"/>
  <path d="M122 72 Q128 58 117 64" stroke="#2D2D2D" stroke-width="3" fill="none" stroke-linecap="round"/>
  <path d="M95 70 Q100 55 105 70" stroke="#2D2D2D" stroke-width="3" fill="none" stroke-linecap="round"/>
  <circle cx="68" cy="55" r="7" fill="#FF6B6B" opacity="0.7"/>
  <circle cx="100" cy="50" r="7" fill="#FF6B6B" opacity="0.7"/>
  <circle cx="132" cy="55" r="7" fill="#FF6B6B" opacity="0.7"/>
</svg>