<svg xmlns="http://www.w3.org/2000/svg" viewBox="0 0 200 200" width="200" height="200">
  <ellipse cx="100" cy="108" rx="75" ry="72" fill="#FFD93D"/>
  <path d="M70 88 Q100 82 130 88" stroke="#2D2D2D" stroke-width="3.5" fill="none" stroke-linecap="round"/>
  <ellipse cx="76" cy="95" rx="11" ry="7" fill="#2D2D2D"/>
  <ellipse cx="124" cy="95" rx="11" ry="7" fill="#2D2D2D"/>
  <path d="M78 126 Q100 142 122 126" stroke="#2D2D2D" stroke-width="4" fill="none" stroke-linecap="round"/>
  <path d="M80 130 Q100 142 120 130" fill="#FF6B6B"/>
  <ellipse cx="66" cy="136" rx="11" ry="8" fill="#FF9E9E" opacity="0.6"/>
  <ellipse cx="134" cy="136" rx="11" ry="8" fill="#FF9E9E" opacity="0.6"/>
  <path d="M88 115 Q100 112 112 115" stroke="#2D2D2D" stroke-width="2" fill="none"/>
  <path d="M62 60 Q58 42 72 48" stroke="#2D2D2D" stroke-width="2.5" fill="none" stroke-linecap="round"/>
  <circle cx="60" cy="38" r="6" fill="#2D2D2D"/>
  <path d="M100 58 Q100 38 100 38" stroke="#2D2D2D" stroke-width="2.5" fill="none" stroke-linecap="round"/>
  <circle cx="100" cy="33" r="6" fill="#2D2D2D"/>
  <path d="M138 60 Q142 42 128 48" stroke="#2D2D2D" stroke-width="2.5" fill="none" stroke-linecap="round"/>
  <circle cx="140" cy="38" r="6" fill="#2D2D2D"/>
  <text x="100" y="172" font-size="14" text-anchor="middle" fill="#2D2D2D" opacity="0.4">zzz</text>
</svg>