<svg xmlns="http://www.w3.org/2000/svg" viewBox="0 0 200 200" width="200" height="200">
  <circle cx="100" cy="100" r="75" fill="#FFD93D"/>
  <circle cx="76" cy="88" r="10" fill="#2D2D2D"/>
  <circle cx="124" cy="88" r="10" fill="#2D2D2D"/>
  <circle cx="79" cy="85" r="3.5" fill="white"/>
  <circle cx="127" cy="85" r="3.5" fill="white"/>
  <path d="M78 115 Q100 135 122 115" stroke="#2D2D2D" stroke-width="4" fill="none" stroke-linecap="round"/>
  <path d="M80 119 Q100 135 120 119" fill="#FF6B6B"/>
  <ellipse cx="68" cy="122" rx="11" ry="8" fill="#FF9E9E" opacity="0.6"/>
  <ellipse cx="132" cy="122" rx="11" ry="8" fill="#FF9E9E" opacity="0.6"/>
  <g transform="translate(140,25) rotate(20)">
    <path d="M0 0 L8 -22 L16 0 L10 0 L10 18 L6 18 L6 0 Z" fill="#FF6B6B"/>
    <ellipse cx="8" cy="-24" rx="8" ry="6" fill="#FF6B6B"/>
  </g>
  <text x="55" y="48" font-size="20" text-anchor="middle">🎉</text>
  <text x="148" y="60" font-size="16" text-anchor="middle">✨</text>
  <text x="38" y="75" font-size="14" text-anchor="middle">⭐</text>
</svg>